<svg width="626" height="626" viewBox="0 0 626 626" fill="none" xmlns="http://www.w3.org/2000/svg">
<rect width="626" height="626" fill="white"/>
<path d="M40 515.7C54 515.3 64.3 510.1 70.9 500.1C77.7 490.1 81.1 473.2 81.1 449.4V284.4C81.1 276.8 80.5 271.3 79.3 267.9C78.1 264.5 75.8 262.2 72.4 261C69.2 259.8 64 259 56.8 258.6V252.6C65.2 253.2 77.8 253.5 94.6 253.5C111 253.5 123.9 253.2 133.3 252.6V258.6C126.1 259 120.8 259.8 117.4 261C114.2 262.2 112 264.5 110.8 267.9C109.6 271.3 109 276.8 109 284.4V394.2C109 411.2 108.7 426.3 108.1 439.5C107.5 452.5 106.1 463.5 103.9 472.5C100.3 487.1 92.9 498.9 81.7 507.9C70.7 516.9 56.8 521.4 40 521.4V515.7ZM346.652 248.4C359.252 248.4 369.652 252.1 377.852 259.5C386.252 266.7 390.452 276.5 390.452 288.9C390.452 298.5 387.852 306.9 382.652 314.1C377.452 321.1 370.552 326.7 361.952 330.9C354.352 334.5 339.552 339.7 317.552 346.5C328.752 351.3 336.952 358.2 342.152 367.2C347.552 376 350.252 386.1 350.252 397.5C350.252 409.9 346.552 421.6 339.152 432.6C331.752 443.6 321.152 452.5 307.352 459.3C293.552 465.9 277.352 469.2 258.752 469.2C241.352 469.2 225.152 466.2 210.152 460.2C195.352 454 183.552 445.3 174.752 434.1C165.952 422.7 161.552 409.5 161.552 394.5C161.552 381.3 164.752 370.2 171.152 361.2C177.752 352 185.252 345.1 193.652 340.5C202.052 335.7 209.852 332.4 217.052 330.6C207.252 326.4 199.752 320.8 194.552 313.8C189.352 306.8 186.752 299.5 186.752 291.9C186.752 285.3 188.652 279.2 192.452 273.6C196.452 267.8 202.252 263.2 209.852 259.8C217.652 256.2 226.852 254.4 237.452 254.4C250.852 254.4 261.252 257.4 268.652 263.4C272.252 266.4 274.952 269.8 276.752 273.6C278.752 277.2 279.752 280.7 279.752 284.1C279.752 288.9 278.052 292.8 274.652 295.8C271.252 298.6 267.352 300 262.952 300C258.752 300 255.052 298.7 251.852 296.1C248.852 293.3 247.352 289.6 247.352 285C247.352 280.6 248.852 276.9 251.852 273.9C254.852 270.7 258.652 268.9 263.252 268.5C262.252 265.9 259.652 263.7 255.452 261.9C251.452 259.9 246.452 258.9 240.452 258.9C230.052 258.9 221.652 262.1 215.252 268.5C208.852 274.7 205.652 283.4 205.652 294.6C205.652 308 210.752 319.4 220.952 328.8C227.952 327.6 234.152 327 239.552 327C243.152 327 246.052 327.6 248.252 328.8C250.452 330 251.552 331.7 251.552 333.9C251.552 335.7 250.752 337.1 249.152 338.1C247.752 339.1 245.752 339.6 243.152 339.6C239.952 339.6 236.652 339 233.252 337.8C229.852 336.6 225.852 335 221.252 333C195.252 340.8 182.252 357.2 182.252 382.2C182.252 395.6 185.752 407.2 192.752 417C199.752 426.8 209.352 434.3 221.552 439.5C233.752 444.5 247.452 447 262.652 447C276.852 447 289.952 444.8 301.952 440.4C314.152 435.8 323.752 429.4 330.752 421.2C337.952 412.8 341.552 403.1 341.552 392.1C341.552 384.1 339.452 376 335.252 367.8C331.052 359.6 323.052 353.2 311.252 348.6C295.652 353.4 284.152 357.2 276.752 360C268.352 363.2 261.852 366.9 257.252 371.1C252.652 375.1 250.352 380.1 250.352 386.1C250.352 393.3 253.252 399.1 259.052 403.5C265.052 407.9 271.352 410.1 277.952 410.1C281.352 410.1 285.052 409.5 289.052 408.3C293.052 407.1 295.352 405.5 295.952 403.5C292.152 402.7 288.852 401.1 286.052 398.7C283.252 396.3 281.852 392.8 281.852 388.2C281.852 383.4 283.352 379.6 286.352 376.8C289.552 374 293.552 372.6 298.352 372.6C303.152 372.6 306.952 374.1 309.752 377.1C312.752 380.1 314.252 384 314.252 388.8C314.252 396.8 310.552 403.1 303.152 407.7C295.752 412.3 287.552 414.6 278.552 414.6C268.752 414.6 260.052 411.7 252.452 405.9C245.052 399.9 241.352 391.1 241.352 379.5C241.352 369.3 244.752 360.7 251.552 353.7C258.552 346.5 268.952 340.5 282.752 335.7L304.052 329.4C316.052 326 326.052 323 334.052 320.4C342.052 317.8 349.352 315 355.952 312C365.552 307.6 372.252 303.1 376.052 298.5C379.852 293.9 381.752 288.8 381.752 283.2C381.752 274.8 378.252 267.7 371.252 261.9C364.452 255.9 356.352 252.9 346.952 252.9C341.952 252.9 338.952 253.8 337.952 255.6C340.552 256.8 342.552 258.8 343.952 261.6C345.552 264.2 346.352 266.8 346.352 269.4C346.352 273.6 344.652 277.1 341.252 279.9C338.052 282.7 334.152 284.1 329.552 284.1C325.352 284.1 321.652 282.8 318.452 280.2C315.252 277.6 313.652 273.9 313.652 269.1C313.652 261.9 316.952 256.7 323.552 253.5C330.352 250.1 338.052 248.4 346.652 248.4ZM564.126 426.6C564.126 438 564.826 450.8 566.226 465C552.626 464.4 529.726 464.1 497.526 464.1C459.126 464.1 430.126 464.4 410.526 465V459C417.726 458.6 422.926 457.8 426.126 456.6C429.526 455.4 431.826 453.1 433.026 449.7C434.226 446.3 434.826 440.8 434.826 433.2V284.4C434.826 276.8 434.226 271.3 433.026 267.9C431.826 264.5 429.526 262.2 426.126 261C422.926 259.8 417.726 259 410.526 258.6V252.6C430.126 253.2 459.126 253.5 497.526 253.5C526.926 253.5 547.826 253.2 560.226 252.6C558.826 265.8 558.126 277.6 558.126 288C558.126 295.8 558.426 302 559.026 306.6H552.126C550.726 293.6 548.926 284 546.726 277.8C544.526 271.4 540.826 266.8 535.626 264C530.426 261 522.526 259.5 511.926 259.5H487.026C479.826 259.5 474.526 260.1 471.126 261.3C467.926 262.3 465.726 264.5 464.526 267.9C463.326 271.3 462.726 276.8 462.726 284.4V355.2H482.526C489.526 355.2 494.926 353.6 498.726 350.4C502.526 347 505.026 343.1 506.226 338.7C507.626 334.1 508.726 328.4 509.526 321.6L510.426 315.6H517.326C516.726 324 516.426 333.4 516.426 343.8V358.2C516.426 368.4 517.026 382.6 518.226 400.8H511.326C511.126 399.4 510.526 394.6 509.526 386.4C508.526 378 505.726 371.7 501.126 367.5C496.726 363.3 490.526 361.2 482.526 361.2H462.726V433.2C462.726 440.8 463.326 446.3 464.526 449.7C465.726 453.1 467.926 455.4 471.126 456.6C474.526 457.6 479.826 458.1 487.026 458.1H508.926C521.326 458.1 530.726 456.5 537.126 453.3C543.726 449.9 548.526 444.6 551.526 437.4C554.526 430 556.726 419.2 558.126 405H565.026C564.426 410.4 564.126 417.6 564.126 426.6Z" fill="black"/>
<line x1="288" y1="211" x2="339" y2="211" stroke="black" stroke-width="6"/>
<line x1="202" y1="537" x2="426" y2="537" stroke="black" stroke-width="6"/>
<path d="M306.091 112.412L296.397 98.6313L305.266 92H320.528L329.5 98.6313L319.909 112.412M346 144.843C346 163.155 331.225 178 313 178C294.775 178 280 163.155 280 144.843C280 126.531 294.775 111.687 313 111.687C331.225 111.687 346 126.531 346 144.843Z" stroke="black" stroke-width="6"/>
</svg>
